# AST/ASF file generated using VICON BodyLanguage
# -----------------------------------------------
:version 1.10
:name VICON
:units
  mass 1.0
  length 0.45
  angle deg
:documentation
   .ast/.asf automatically generated from VICON data using
   VICON BodyBuilder and BodyLanguage model FoxedUp or BRILLIANT.MOD
:root
   order TX TY TZ RX RY RZ
   axis XYZ
   position 0 0 0  
   orientation 0 0 0 
:bonedata
  begin
     id 1 
     name lhipjoint
     direction 0.624716 -0.669793 0.401383 
     length 2.38238 
     axis 0 0 0  XYZ
  end
  begin
     id 2 
     name lfemur
     direction 0.34202 -0.939693 0  
     length 6.4574  
     axis 0 0 20  XYZ
    dof rx ry rz
    limits (-160.0 20.0)
           (-70.0 70.0)
           (-60.0 70.0)
  end
  begin
     id 3 
     name ltibia
     direction 0.34202 -0.939693 0   
     length 7.68739   
     axis 0 0 20   XYZ
    dof rx
    limits (-10.0 170.0)
  end
  begin
     id 4 
     name lfoot
     direction 0.0681309 -0.187188 0.979959   
     length 2.46615   
     axis -90 7.62852e-016 20   XYZ
    dof rx rz
    limits (-45.0 90.0)
           (-70.0 20.0)
  end
  begin
     id 5 
     name ltoes
     direction 1.53566e-011 -4.21819e-011 1   
     length 1.2376   
     axis -90 7.62852e-016 20   XYZ
    dof rx
    limits (-90.0 20.0)
  end
  begin
     id 6 
     name rhipjoint
     direction -0.644473 -0.655875 0.393043   
     length 2.43293  
     axis 0 0 0  XYZ 
  end
  begin
     id 7 
     name rfemur
     direction -0.34202 -0.939693 0   
     length 6.7025   
     axis 0 0 -20   XYZ
    dof rx ry rz
    limits (-160.0 20.0)
           (-70.0 70.0)
           (-70.0 60.0)
  end
  begin
     id 8 
     name rtibia
     direction -0.34202 -0.939693 0   
     length 7.80547   
     axis 0 0 -20   XYZ
    dof rx
    limits (-10.0 170.0)
 end
 begin
     id 9 
     name rfoot
     direction -0.0756734 -0.207911 0.975216   
     length 2.40315  
     axis -90 -7.62852e-016 -20   XYZ
    dof rx rz
    limits (-45.0 90.0)
           (-20.0 70.0)
  end
  begin
     id 10 
     name rtoes
     direction -1.5353e-011 -4.21879e-011 1   
     length 1.20477   
     axis -90 -7.62852e-016 -20   XYZ
    dof rx
    limits (-90.0 20.0)
  end
  begin
     id 11 
     name lowerback
     direction 0.0160353 0.987463 -0.157037   
     length 2.18572   
     axis 0 0 0   XYZ
    dof rx ry rz
    limits (-20.0 45.0)
           (-30.0 30.0)
           (-30.0 30.0)
  end
  begin
     id 12 
     name upperback
     direction -0.00499661 0.999756 0.0215076   
     length 2.18016   
     axis 0 0 0   XYZ
    dof rx ry rz
    limits (-20.0 45.0)
           (-30.0 30.0)
           (-30.0 30.0)
  end
  begin
     id 13 
     name thorax
     direction -0.00921346 0.995333 0.0960619   
     length 2.24923   
     axis 0 0 0   XYZ
    dof rx ry rz
    limits (-20.0 45.0)
           (-30.0 30.0)
           (-30.0 30.0)
  end
  begin
     id 14 
     name lowerneck
     direction 0.0274184 0.991181 0.12965   
     length 1.70911   
     axis 0 0 0   XYZ
    dof rx ry rz
    limits (-20.0 45.0)
           (-30.0 30.0)
           (-30.0 30.0)
  end
  begin
     id 15 
     name upperneck
     direction 0.0015627 0.999959 -0.00893559   
     length 1.69312   
     axis 0 0 0   XYZ
    dof rx ry rz
    limits (-20.0 45.0)
           (-30.0 30.0)
           (-30.0 30.0)
  end
  begin
     id 16
     name head
     direction -0.00230242 0.999856 -0.0168327  
     length 1.80241  
     axis 0 0 0   XYZ
    dof rx ry rz
    limits (-20.0 45.0)
           (-30.0 30.0)
           (-30.0 30.0)
  end
  begin
     id 17 
     name lclavicle
     direction 0.955523 0.290741 -0.0494489  
     length 3.84275  
     axis 0 0 0   XYZ
    dof ry rz
    limits (-20.0 10.0)
           (0.0 20.0)
  end
  begin
     id 18 
     name lhumerus
     direction 1 -4.48967e-011 -3.18382e-028   
     length 5.17714   
     axis 180 -30 -90   XYZ
    dof rx ry rz
    limits (-60.0 90.0)
           (-90.0 90.0)
           (-90.0 90.0)
  end
  begin
     id 19
     name lradius
     direction 1 -4.48968e-011 -2.22911e-027   
     length 3.43679   
     axis 180 -30 -90   XYZ
    dof rx
    limits (-10.0 170.0)
  end
  begin
     id 20
     name lwrist
     direction 1 -4.48951e-011 -6.32245e-027   
     length 1.7184   
     axis 3.57107e-015 90 90   XYZ
    dof ry
    limits (-180.0 0.0)
 end
  begin
     id 21 
     name lhand
     direction 1 -4.48924e-011 -1.26431e-026   
     length 0.573117   
     axis 8.06912e-015 90 90   XYZ
    dof rx rz
    limits (-90.0 90.0)
           (-45.0 45.0)
  end
  begin
     id 22 
     name lfingers
     direction 1 -4.49001e-011 -2.52965e-026   
     length 0.462062   
     axis 1.61381e-014 90 90   XYZ
    dof rx
    limits (0.0 90.0)
  end
  begin
     id 23
     name lthumb
     direction 0.707107 -6.35008e-011 0.707107   
     length 0.663431   
     axis -90 45 -1.62303e-014   XYZ
    dof rx rz
    limits (-45.0 45.0)
           (-45.0 45.0)
  end
  begin
     id 24 
     name rclavicle
     direction -0.963917 0.256881 -0.0698287   
     length 3.73057  
     axis 0 0 0   XYZ 
    dof ry rz
    limits (-10.0 20.0)
           (-20.0 0.0)
  end
  begin
     id 25 
     name rhumerus
     direction -1 -4.48962e-011 -2.73982e-027  
     length 5.23908   
     axis 180 30 90   XYZ
    dof rx ry rz
    limits (-90.0 60.0)
           (-90.0 90.0)
           (-90.0 90.0)
  end
  begin
     id 26 
     name rradius
     direction -1 -4.48968e-011 -4.33218e-027   
     length 3.46485   
     axis 180 30 90   XYZ
    dof rx
    limits (-10.0 170.0)
  end
  begin
     id 27 
     name rwrist
     direction -1 -4.48989e-011 -6.32372e-027   
     length 1.73243   
     axis 3.57107e-015 -90 -90   XYZ
    dof ry
    limits (-180.0 0.0)
  end
  begin
     id 28
     name rhand
     direction -1 -4.48948e-011 -1.26448e-026   
     length 0.608752   
     axis 8.06912e-015 -90 -90   XYZ
    dof rx rz
    limits (-90.0 90.0)
           (-45.0 45.0)
  end
  begin
     id 29
     name rfingers
     direction -1 -4.48962e-011 -2.52913e-026   
     length 0.490792   
     axis 1.61381e-014 -90 -90   XYZ
    dof rx
    limits (0.0 90.0)
  end
  begin
     id 30
     name rthumb
     direction -0.707107 -6.34878e-011 0.707107   
     length 0.704682   
     axis -90 -45 1.62303e-014   XYZ
    dof rx rz
    limits (-45.0 45.0)
           (-45.0 45.0)
  end
:hierarchy
  begin
    root lhipjoint rhipjoint lowerback
    lhipjoint lfemur
    lfemur ltibia
    ltibia lfoot
    lfoot ltoes
    rhipjoint rfemur
    rfemur rtibia
    rtibia rfoot
    rfoot rtoes
    lowerback upperback
    upperback thorax
    thorax lowerneck lclavicle rclavicle
    lowerneck upperneck
    upperneck head
    lclavicle lhumerus
    lhumerus lradius
    lradius lwrist
    lwrist lhand lthumb
    lhand lfingers
    rclavicle rhumerus
    rhumerus rradius
    rradius rwrist
    rwrist rhand rthumb
    rhand rfingers
  end

#!OML:ASF G:\JayActor3\Patient Classification 1\Patient 1\Session 6\male.ASF
:FULLY-SPECIFIED
:DEGREES
383
root 45.8773 15.8225 -23.2741 -5.31284 -60.4591 6.55401
lowerback 4.39795 -4.30388 -3.67911
upperback -4.43624 -5.98373 1.5805
thorax -6.55359 -2.74727 4.28075
lowerneck -9.46248 3.19649 5.29316
upperneck 6.24497 3.71021 -1.51222
head 3.89704 1.90017 -1.21316
rclavicle 1.35174e-014 1.82882e-014
rhumerus -49.6158 0.415207 -69.5493
rradius 26.3603
rwrist 1.65924
rhand -11.3172 -7.5401
rfingers 7.12502
rthumb 14.7149 -36.9979
lclavicle 1.35174e-014 1.82882e-014
lhumerus -49.1396 -45.7273 107.824
lradius 48.6464
lwrist 25.4205
lhand -6.0206 9.68444
lfingers 7.12502
lthumb 19.8126 38.6946
rfemur -29.6748 3.29594 10.9989
rtibia 33.9891
rfoot -16.4495 -17.5313
rtoes -1.77273
lfemur 25.8185 17.1029 -15.8802
ltibia 3.18055e-015
lfoot -6.04913 -3.67272
ltoes -19.7278
384
root 45.7667 15.8453 -23.2673 -5.45242 -60.3547 6.66261
lowerback 4.4178 -4.27419 -3.65078
upperback -4.46579 -5.94164 1.61076
thorax -6.6001 -2.72513 4.29713
lowerneck -9.39193 3.1561 5.35934
upperneck 6.29043 3.65523 -1.55317
head 3.90025 1.87368 -1.24325
rclavicle 2.34566e-014 3.97569e-015
rhumerus -49.6176 0.707955 -69.8654
rradius 26.7272
rwrist 1.42935
rhand -11.3913 -7.5523
rfingers 7.12502
rthumb 14.6435 -37.0153
lclavicle 2.34566e-014 3.97569e-015
lhumerus -49.3125 -45.193 107.923
lradius 47.9929
lwrist 25.0947
lhand -5.96833 9.56031
lfingers 7.12502
lthumb 19.8628 38.5653
rfemur -29.22 3.10412 11.1683
rtibia 33.9773
rfoot -16.29 -17.4627
rtoes -1.40455
lfemur 26.1496 16.9808 -15.6072
ltibia 6.36111e-015
lfoot -5.068 -3.63355
ltoes -20.1874
385
root 45.6543 15.8691 -23.2609 -5.55591 -60.2193 6.72643
lowerback 4.43057 -4.2511 -3.60626
upperback -4.49697 -5.90686 1.64182
thorax -6.64504 -2.70745 4.30542
lowerneck -9.32702 3.1101 5.41983
upperneck 6.3633 3.59263 -1.58689
head 3.9136 1.84392 -1.2703
rclavicle -9.74045e-015 -1.74931e-014
rhumerus -49.6197 1.03105 -70.2087
rradius 27.1067
rwrist 1.16536
rhand -11.4811 -7.54337
rfingers 7.12502
rthumb 14.557 -37.0126
lclavicle -9.74045e-015 -1.74931e-014
lhumerus -49.4392 -44.6198 107.961
lradius 47.3306
lwrist 24.7524
lhand -5.8684 9.44114
lfingers 7.12502
lthumb 19.9589 38.4362
rfemur -28.7326 2.92444 11.3563
rtibia 33.9346
rfoot -16.1656 -17.3495
rtoes -1.06814
lfemur 26.4636 16.8261 -15.3201
ltibia 3.81667e-014
lfoot -4.03826 -3.53981
ltoes -20.5561
386
root 45.5398 15.8933 -23.2546 -5.62309 -60.0623 6.73586
lowerback 4.43371 -4.2304 -3.54232
upperback -4.52608 -5.87324 1.67476
thorax -6.68374 -2.69155 4.30398
lowerneck -9.2791 3.0609 5.46617
upperneck 6.4796 3.52499 -1.60174
head 3.94458 1.81263 -1.28856
rclavicle 1.19271e-014 3.65764e-014
rhumerus -49.6265 1.37495 -70.5733
rradius 27.4919
rwrist 0.875653
rhand -11.6253 -7.49763
rfingers 7.12502
rthumb 14.418 -36.9768
lclavicle 1.19271e-014 3.65764e-014
lhumerus -49.5164 -44.0048 107.938
lradius 46.6619
lwrist 24.3973
lhand -5.80706 9.24434
lfingers 7.12502
lthumb 20.0178 38.2332
rfemur -28.2027 2.7695 11.5712
rtibia 33.8658
rfoot -16.101 -17.2317
rtoes -0.745991
lfemur 26.7748 16.6462 -15.0091
ltibia -3.18055e-014
lfoot -2.9647 -3.38722
ltoes -20.7931
387
root 45.4233 15.9176 -23.2483 -5.64842 -59.8813 6.67977
lowerback 4.42576 -4.21458 -3.45181
upperback -4.54776 -5.84327 1.71124
thorax -6.70984 -2.67924 4.29032
lowerneck -9.25619 3.00937 5.50148
upperneck 6.63849 3.45326 -1.6063
head 3.99496 1.77994 -1.3014
rclavicle -1.59028e-014 -7.95139e-015
rhumerus -49.6227 1.73615 -70.9574
rradius 27.8657
rwrist 0.572356
rhand -11.8113 -7.40748
rfingers 7.12502
rthumb 14.2389 -36.8994
lclavicle -1.59028e-014 -7.95139e-015
lhumerus -49.5347 -43.3398 107.839
lradius 45.9929
lwrist 24.0401
lhand -5.76276 9.02672
lfingers 7.12502
lthumb 20.0604 38.0111
rfemur -27.6237 2.64165 11.8179
rtibia 33.7772
rfoot -16.1229 -17.1481
rtoes -0.4572
lfemur 27.0856 16.4383 -14.6702
ltibia -1.90833e-014
lfoot -1.84927 -3.1605
ltoes -20.9276
388
root 45.3053 15.9415 -23.2415 -5.68185 -59.6684 6.61076
lowerback 4.41365 -4.20465 -3.35365
upperback -4.56286 -5.82047 1.74342
thorax -6.72698 -2.67134 4.26772
lowerneck -9.23972 2.95485 5.53032
upperneck 6.8185 3.37797 -1.61159
head 4.05395 1.74553 -1.31356
rclavicle 7.16619e-014 1.03368e-014
rhumerus -49.6141 2.11503 -71.3556
rradius 28.2361
rwrist 0.259431
rhand -12.0014 -7.33692
rfingers 7.12502
rthumb 14.0557 -36.8416
lclavicle 7.16619e-014 1.03368e-014
lhumerus -49.5008 -42.6272 107.675
lradius 45.3225
lwrist 23.6939
lhand -5.7441 8.79755
lfingers 7.12502
lthumb 20.0783 37.7801
rfemur -26.9929 2.50695 12.0673
rtibia 33.6745
rfoot -16.2285 -17.0947
rtoes -0.179982
lfemur 27.4011 16.1984 -14.3353
ltibia 2.22639e-014
lfoot -0.697919 -2.84522
ltoes -20.9791
389
root 45.1861 15.965 -23.2344 -5.71113 -59.4314 6.52186
lowerback 4.39332 -4.19852 -3.2489
upperback -4.5708 -5.80185 1.77444
thorax -6.73201 -2.66635 4.23937
lowerneck -9.23044 2.89945 5.5661
upperneck 7.00381 3.3017 -1.63438
head 4.11703 1.71008 -1.33303
rclavicle -1.3418e-014 -1.51076e-014
rhumerus -49.5979 2.48786 -71.7509
rradius 28.6012
rwrist -0.021646
rhand -12.1864 -7.2697
rfingers 7.12502
rthumb 13.8774 -36.7867
lclavicle -1.3418e-014 -1.51076e-014
lhumerus -49.4248 -41.8841 107.452
lradius 44.658
lwrist 23.3794
lhand -5.73836 8.63853
lfingers 7.12502
lthumb 20.0839 37.6205
rfemur -26.3203 2.36737 12.3249
rtibia 33.5572
rfoot -16.4133 -17.0674
rtoes 0.106725
lfemur 27.7138 15.9344 -14.0017
ltibia 2.54444e-014
lfoot 0.488552 -2.43403
ltoes -20.9845
390
root 45.0661 15.9879 -23.2272 -5.74682 -59.1722 6.42886
lowerback 4.37283 -4.19718 -3.14445
upperback -4.57113 -5.78956 1.80397
thorax -6.72836 -2.66486 4.20965
lowerneck -9.24774 2.8468 5.61004
upperneck 7.19748 3.22831 -1.6772
head 4.18947 1.67536 -1.36055
rclavicle -6.7885e-014 3.97569e-014
rhumerus -49.5483 2.85673 -72.1388
rradius 28.946
rwrist -0.270106
rhand -12.3425 -7.23954
rfingers 7.12502
rthumb 13.7269 -36.7668
lclavicle -6.7885e-014 3.97569e-014
lhumerus -49.3097 -41.122 107.173
lradius 44.0105
lwrist 23.1062
lhand -5.72644 8.57168
lfingers 7.12502
lthumb 20.0953 37.5524
rfemur -25.6154 2.20014 12.5833
rtibia 33.4227
rfoot -16.6395 -17.0376
rtoes 0.404886
lfemur 28.0175 15.6504 -13.6804
ltibia 6.36111e-014
lfoot 1.71411 -1.92184
ltoes -20.9494
391
root 44.9462 16.0107 -23.2202 -5.76974 -58.8939 6.3236
lowerback 4.35181 -4.20096 -3.03714
upperback -4.56983 -5.78375 1.83623
thorax -6.72207 -2.66673 4.18158
lowerneck -9.28498 2.79572 5.65536
upperneck 7.39369 3.15736 -1.73769
head 4.26762 1.641 -1.39426
rclavicle -3.22031e-014 -7.95139e-015
rhumerus -49.4761 3.22666 -72.5167
rradius 29.2842
rwrist -0.482177
rhand -12.4886 -7.2039
rfingers 7.12502
rthumb 13.5861 -36.7406
lclavicle -3.22031e-014 -7.95139e-015
lhumerus -49.1729 -40.3478 106.849
lradius 43.3918
lwrist 22.8899
lhand -5.7039 8.63082
lfingers 7.12502
lthumb 20.117 37.6093
rfemur -24.8933 2.00569 12.846
rtibia 33.2636
rfoot -16.8822 -16.9927
rtoes 0.720798
lfemur 28.2974 15.3509 -13.3706
ltibia -3.18055e-014
lfoot 2.98434 -1.30081
ltoes -20.8042
392
root 44.8263 16.0334 -23.2139 -5.77197 -58.5998 6.19738
lowerback 4.33473 -4.20232 -2.92513
upperback -4.57461 -5.77476 1.86691
thorax -6.72543 -2.66695 4.14977
lowerneck -9.26728 2.73565 5.71498
upperneck 7.88663 3.09216 -1.93588
head 3.98815 1.59518 -1.32463
rclavicle -4.57205e-014 -1.03368e-014
rhumerus -49.403 3.55612 -72.8657
rradius 29.6111
rwrist -0.627368
rhand -12.658 -7.11245
rfingers 7.12502
rthumb 13.4228 -36.66
lclavicle -4.57205e-014 -1.03368e-014
lhumerus -49.0588 -39.6042 106.516
lradius 42.8097
lwrist 22.7364
lhand -5.73996 8.72032
lfingers 7.12502
lthumb 20.0823 37.7024
rfemur -24.1566 1.80379 13.1184
rtibia 33.0746
rfoot -17.1361 -16.943
rtoes 1.05371
lfemur 28.5503 15.0393 -13.0667
ltibia -2.54444e-014
lfoot 4.30326 -0.570872
ltoes -20.6054
393
root 44.7069 16.0561 -23.208 -5.76042 -58.3028 6.05944
lowerback 4.32148 -4.19444 -2.8021
upperback -4.58423 -5.75328 1.88943
thorax -6.73911 -2.66137 4.10298
lowerneck -9.28588 2.66556 5.76536
upperneck 8.08463 2.99733 -2.00309
head 4.04996 1.54822 -1.35848
rclavicle 4.04527e-014 -7.95139e-015
rhumerus -49.3292 3.83776 -73.1908
rradius 29.9295
rwrist -0.733564
rhand -12.8297 -7.00093
rfingers 7.12502
rthumb 13.2574 -36.5593
lclavicle 4.04527e-014 -7.95139e-015
lhumerus -48.9758 -38.9103 106.18
lradius 42.2755
lwrist 22.6576
lhand -5.80036 8.90147
lfingers 7.12502
lthumb 20.0243 37.8897
rfemur -23.4103 1.60936 13.395
rtibia 32.8515
rfoot -17.3913 -16.8945
rtoes 1.38258
lfemur 28.779 14.7295 -12.7741
ltibia 3.18055e-014
lfoot 5.67285 0.280339
ltoes -20.2893
394
root 44.5881 16.0784 -23.2027 -5.74381 -58.01 5.91499
lowerback 4.31893 -4.17435 -2.67085
upperback -4.60205 -5.71577 1.90291
thorax -6.77068 -2.6479 4.04241
lowerneck -9.28786 2.58296 5.8004
upperneck 8.28478 2.88604 -2.04408
head 4.10836 1.49413 -1.38323
rclavicle 2.57426e-014 2.8625e-014
rhumerus -49.2635 4.07893 -73.4983
rradius 30.2342
rwrist -0.812368
rhand -13.048 -6.847
rfingers 7.12502
rthumb 13.0469 -36.419
lclavicle 2.57426e-014 2.8625e-014
lhumerus -48.9433 -38.2749 105.856
lradius 41.7909
lwrist 22.6362
lhand -5.98586 8.98103
lfingers 7.12502
lthumb 19.8459 37.9878
rfemur -22.6532 1.43435 13.6744
rtibia 32.5961
rfoot -17.6378 -16.849
rtoes 1.71747
lfemur 28.9928 14.4284 -12.4928
ltibia -5.40694e-014
lfoot 7.09505 1.24653
ltoes -19.7985
395
root 44.4703 16.1002 -23.1977 -5.71865 -57.729 5.7537
lowerback 4.3291 -4.14427 -2.5251
upperback -4.61819 -5.66417 1.91239
thorax -6.81058 -2.62807 3.96948
lowerneck -9.28465 2.49849 5.81633
upperneck 8.46732 2.77251 -2.0608
head 4.15977 1.43949 -1.39786
rclavicle -6.85807e-015 2.06736e-014
rhumerus -49.1735 4.2904 -73.792
rradius 30.504
rwrist -0.8616
rhand -13.2913 -6.67507
rfingers 7.12502
rthumb 12.8124 -36.2619
lclavicle -6.85807e-015 2.06736e-014
lhumerus -48.942 -37.6885 105.528
lradius 41.3715
lwrist 22.6555
lhand -6.25105 9.01344
lfingers 7.12502
lthumb 19.591 38.0464
rfemur -21.8837 1.28848 13.9636
rtibia 32.3112
rfoot -17.8743 -16.8012
rtoes 2.08229
lfemur 29.202 14.1417 -12.2143
ltibia 6.36111e-015
lfoot 8.58117 2.30052
ltoes -19.099
396
root 44.3539 16.1212 -23.1926 -5.70978 -57.4581 5.60376
lowerback 4.35399 -4.1071 -2.37436
upperback -4.62467 -5.60287 1.91723
thorax -6.85012 -2.60389 3.88874
lowerneck -9.2931 2.4131 5.81487
upperneck 8.62313 2.6583 -2.06783
head 4.20447 1.38418 -1.40682
rclavicle -1.87852e-014 -1.43125e-014
rhumerus -49.0396 4.48899 -74.0742
rradius 30.7423
rwrist -0.891887
rhand -13.5269 -6.54816
rfingers 7.12502
rthumb 12.5853 -36.1491
lclavicle -1.87852e-014 -1.43125e-014
lhumerus -48.9428 -37.1386 105.181
lradius 41.0212
lwrist 22.6927
lhand -6.53983 9.00255
lfingers 7.12502
lthumb 19.3133 38.0635
rfemur -21.1055 1.13401 14.2454
rtibia 32.0013
rfoot -18.0849 -16.7316
rtoes 2.43962
lfemur 29.4068 13.8707 -11.958
ltibia -5.08889e-014
lfoot 10.133 3.42522
ltoes -18.2317
397
root 44.2393 16.1412 -23.1874 -5.70133 -57.1968 5.45085
lowerback 4.39203 -4.06277 -2.21162
upperback -4.62829 -5.53137 1.91704
thorax -6.89632 -2.57527 3.79615
lowerneck -9.28355 2.32635 5.80839
upperneck 8.74147 2.54352 -2.07106
head 4.23457 1.32836 -1.4142
rclavicle 8.48811e-014 3.97569e-015
rhumerus -48.8764 4.67619 -74.3505
rradius 30.9448
rwrist -0.898732
rhand -13.7675 -6.4444
rfingers 7.12502
rthumb 12.3533 -36.0594
lclavicle 8.48811e-014 3.97569e-015
lhumerus -48.9616 -36.631 104.831
lradius 40.7366
lwrist 22.7432
lhand -6.80987 8.98884
lfingers 7.12502
lthumb 19.0537 38.0756
rfemur -20.3254 0.956277 14.5283
rtibia 31.6695
rfoot -18.2554 -16.6313
rtoes 2.76938
lfemur 29.5992 13.6154 -11.7169
ltibia 0
lfoot 11.7544 4.59879
ltoes -17.2278
